<?xml version="1.0" encoding="UTF-8"?>
<svg id="Layer_2" data-name="Layer 2" xmlns="http://www.w3.org/2000/svg" viewBox="0 0 1687.06 417.74" width="1687.06" height="417.74">
  <defs>
    <style>
      .cls-1 {
        stroke-width: 32px;
      }

      .cls-1, .cls-2 {
        stroke: #14141a;
      }

      .cls-1, .cls-2, .cls-3 {
        fill: none;
        stroke-miterlimit: 10;
      }

      .cls-2, .cls-3 {
        stroke-width: 32px;
      }

      .cls-4 {
        fill: #14141a;
      }

      .cls-3 {
        stroke: #cf301d;
      }
    </style>
  </defs>
  <g id="Layer_1-2" data-name="Layer 1">
    <g>
      <g>
        <path class="cls-4" d="M415.46,357.69v-58.67h23.61c3.5,0,6.68.8,9.52,2.39,2.84,1.59,5.1,3.76,6.76,6.5,1.67,2.74,2.5,5.84,2.5,9.3,0,3.24-.8,6.17-2.41,8.8-1.61,2.63-3.79,4.71-6.55,6.24-2.76,1.54-5.86,2.3-9.31,2.3h-17.41v23.13h-6.72ZM422.18,328.19h18.01c2.12,0,3.99-.47,5.6-1.42,1.61-.95,2.87-2.25,3.79-3.9.92-1.65,1.38-3.53,1.38-5.66,0-2.29-.55-4.33-1.64-6.12-1.09-1.79-2.6-3.18-4.52-4.19s-4.12-1.51-6.59-1.51h-16.03v22.8ZM452.26,357.69l-15.17-25.81,6.46-2.18,16.72,27.99h-8.01Z"/>
        <path class="cls-4" d="M474.05,357.69v-58.67h36.53v6.37h-29.81v45.93h29.64v6.37h-36.36ZM477.16,330.7v-6.37h28.61v6.37h-28.61Z"/>
        <path class="cls-4" d="M527.39,357.69v-58.67h6.12l39.46,50.79-1.21,1.51c-.17-.89-.3-2.23-.39-4.02-.09-1.79-.17-3.81-.26-6.08-.09-2.26-.16-4.62-.21-7.08-.06-2.46-.1-4.86-.13-7.21-.03-2.35-.04-4.47-.04-6.37v-21.54h6.72v58.67h-6.29l-39.29-50.12,1.03-1.76c.17,2.24.33,4.44.47,6.62.14,2.18.26,4.27.35,6.29.09,2.01.16,3.86.21,5.53.06,1.68.1,3.1.13,4.27.03,1.17.04,2.01.04,2.51v26.65h-6.72Z"/>
        <path class="cls-4" d="M596.92,357.69v-58.67h22.75c4.14,0,7.91.71,11.33,2.14,3.42,1.42,6.39,3.45,8.92,6.08,2.53,2.63,4.48,5.73,5.86,9.3,1.38,3.58,2.07,7.52,2.07,11.82s-.69,8.26-2.07,11.86c-1.38,3.6-3.32,6.7-5.82,9.3-2.5,2.6-5.47,4.61-8.92,6.03-3.45,1.42-7.24,2.14-11.37,2.14h-22.75ZM603.64,352.49l-.78-1.17h16.37c3.16,0,6.07-.54,8.75-1.63,2.67-1.09,4.97-2.65,6.89-4.69,1.92-2.04,3.42-4.45,4.48-7.25,1.06-2.79,1.59-5.92,1.59-9.39s-.53-6.59-1.59-9.39c-1.06-2.79-2.57-5.21-4.52-7.25-1.95-2.04-4.25-3.6-6.89-4.69-2.64-1.09-5.54-1.63-8.7-1.63h-16.63l1.03-1.01v48.11Z"/>
        <path class="cls-4" d="M680.24,358.52c-3.05,0-5.92-.42-8.62-1.26-2.7-.84-5.17-2.1-7.41-3.77s-4.22-3.74-5.95-6.2l4.65-5.03c2.7,3.74,5.47,6.37,8.32,7.88,2.84,1.51,6.04,2.26,9.61,2.26,2.58,0,4.94-.42,7.07-1.26,2.12-.84,3.79-2.01,5-3.52,1.21-1.51,1.81-3.24,1.81-5.2,0-1.28-.21-2.43-.65-3.44-.43-1.01-1.08-1.9-1.94-2.68-.86-.78-1.93-1.48-3.19-2.1-1.26-.61-2.71-1.17-4.35-1.68-1.64-.5-3.46-1.01-5.47-1.51-2.93-.67-5.5-1.47-7.71-2.39-2.21-.92-4.08-2.05-5.6-3.39-1.52-1.34-2.67-2.89-3.45-4.65s-1.16-3.84-1.16-6.24.5-4.41,1.51-6.37c1-1.96,2.4-3.65,4.18-5.07,1.78-1.42,3.88-2.53,6.29-3.31,2.41-.78,5-1.17,7.76-1.17,3.1,0,5.87.41,8.31,1.22,2.44.81,4.61,2,6.51,3.56,1.89,1.56,3.53,3.44,4.91,5.62l-4.74,4.53c-1.21-1.84-2.57-3.44-4.09-4.78-1.52-1.34-3.19-2.36-5-3.06-1.81-.7-3.81-1.05-5.99-1.05-2.53,0-4.75.42-6.68,1.26-1.93.84-3.43,2-4.52,3.48-1.09,1.48-1.64,3.17-1.64,5.07,0,1.4.26,2.64.78,3.73s1.33,2.04,2.46,2.85c1.12.81,2.58,1.54,4.39,2.18,1.81.64,3.98,1.24,6.5,1.8,2.99.67,5.67,1.48,8.06,2.43,2.38.95,4.42,2.08,6.12,3.39,1.69,1.31,2.99,2.84,3.88,4.57.89,1.73,1.33,3.72,1.33,5.95,0,3.47-.89,6.5-2.67,9.09-1.78,2.6-4.27,4.62-7.45,6.08-3.19,1.45-6.91,2.18-11.16,2.18Z"/>
        <path class="cls-4" d="M713.07,357.69v-5.03l37.31-49.03,1.29,1.76h-36.36v-6.37h42.82v4.94l-37.14,49.11-1.29-1.76h39.38v6.37h-46.01Z"/>
        <path class="cls-4" d="M774.33,357.69v-58.67h36.53v6.37h-29.81v45.93h29.64v6.37h-36.36ZM777.43,330.7v-6.37h28.61v6.37h-28.61Z"/>
        <path class="cls-4" d="M827.67,357.69v-58.67h23.61c3.5,0,6.68.8,9.52,2.39,2.84,1.59,5.1,3.76,6.76,6.5,1.67,2.74,2.5,5.84,2.5,9.3,0,3.24-.8,6.17-2.41,8.8-1.61,2.63-3.79,4.71-6.55,6.24-2.76,1.54-5.86,2.3-9.31,2.3h-17.41v23.13h-6.72ZM834.39,328.19h18.01c2.12,0,3.99-.47,5.6-1.42,1.61-.95,2.87-2.25,3.79-3.9.92-1.65,1.38-3.53,1.38-5.66,0-2.29-.55-4.33-1.64-6.12-1.09-1.79-2.6-3.18-4.52-4.19s-4.12-1.51-6.59-1.51h-16.03v22.8ZM864.46,357.69l-15.17-25.81,6.46-2.18,16.72,27.99h-8.01Z"/>
        <path class="cls-4" d="M912.11,357.69v-58.67h36.53v6.37h-29.81v45.93h29.64v6.37h-36.36ZM915.21,330.7v-6.37h28.61v6.37h-28.61ZM925.89,294.24l-1.98-3.52,14.39-8.8,3.53,5.87-15.94,6.45Z"/>
        <path class="cls-4" d="M983.02,358.52c-3.04,0-5.92-.42-8.62-1.26-2.7-.84-5.17-2.1-7.41-3.77s-4.22-3.74-5.95-6.2l4.65-5.03c2.7,3.74,5.47,6.37,8.31,7.88,2.84,1.51,6.04,2.26,9.61,2.26,2.58,0,4.94-.42,7.07-1.26,2.12-.84,3.79-2.01,5-3.52,1.21-1.51,1.81-3.24,1.81-5.2,0-1.28-.22-2.43-.65-3.44-.43-1.01-1.08-1.9-1.94-2.68-.86-.78-1.92-1.48-3.19-2.1-1.26-.61-2.71-1.17-4.35-1.68-1.64-.5-3.46-1.01-5.47-1.51-2.93-.67-5.5-1.47-7.71-2.39-2.21-.92-4.08-2.05-5.6-3.39-1.52-1.34-2.67-2.89-3.45-4.65s-1.16-3.84-1.16-6.24.5-4.41,1.51-6.37c1-1.96,2.4-3.65,4.18-5.07s3.88-2.53,6.29-3.31c2.41-.78,5-1.17,7.75-1.17,3.1,0,5.87.41,8.32,1.22,2.44.81,4.61,2,6.5,3.56,1.9,1.56,3.53,3.44,4.91,5.62l-4.74,4.53c-1.21-1.84-2.57-3.44-4.09-4.78-1.52-1.34-3.19-2.36-5-3.06-1.81-.7-3.81-1.05-5.99-1.05-2.53,0-4.75.42-6.68,1.26-1.92.84-3.43,2-4.52,3.48-1.09,1.48-1.64,3.17-1.64,5.07,0,1.4.26,2.64.78,3.73.52,1.09,1.34,2.04,2.46,2.85,1.12.81,2.59,1.54,4.39,2.18,1.81.64,3.98,1.24,6.51,1.8,2.99.67,5.67,1.48,8.06,2.43,2.38.95,4.42,2.08,6.12,3.39,1.69,1.31,2.99,2.84,3.88,4.57.89,1.73,1.34,3.72,1.34,5.95,0,3.47-.89,6.5-2.67,9.09-1.78,2.6-4.26,4.62-7.45,6.08-3.19,1.45-6.91,2.18-11.16,2.18Z"/>
        <path class="cls-4" d="M1045.4,357.69v-58.67h6.72v58.67h-6.72ZM1048.67,331.62v-6.37h39.89v6.37h-39.89ZM1085.72,357.69v-58.67h6.72v58.67h-6.72Z"/>
        <path class="cls-4" d="M1105.2,357.69l23.09-58.67h7.67l22.92,58.67h-7.32l-14.73-38.05c-.4-1.06-.85-2.3-1.34-3.73-.49-1.42-1-2.9-1.55-4.44-.55-1.54-1.06-3.03-1.55-4.48-.49-1.45-.93-2.74-1.33-3.86h1.72c-.46,1.4-.93,2.81-1.42,4.23-.49,1.42-.99,2.85-1.51,4.27s-1.03,2.84-1.55,4.23c-.52,1.4-1.03,2.79-1.55,4.19l-14.65,37.63h-6.89ZM1115.02,341.51l2.5-6.37h28.52l2.76,6.37h-33.78Z"/>
        <path class="cls-4" d="M1178.26,357.69v-52.3h-17.23v-6.37h41.88v6.37h-17.92v52.3h-6.72Z"/>
        <path class="cls-4" d="M1216,357.69v-58.67h36.53v6.37h-29.81v45.93h29.64v6.37h-36.36ZM1219.11,330.7v-6.37h28.61v6.37h-28.61ZM1229.79,294.24l-1.98-3.52,14.39-8.8,3.53,5.87-15.94,6.45Z"/>
        <path class="cls-4" d="M1269.34,357.69v-58.67h6.72v58.67h-6.72ZM1274.42,339.67l-.26-7.79,34.12-32.85h9.05l-42.91,40.65ZM1309.75,357.69l-24.21-31.34,4.91-4.19,27.74,35.54h-8.44Z"/>
        <path class="cls-4" d="M1352.31,358.52c-4.25,0-8.17-.74-11.76-2.22-3.59-1.48-6.72-3.56-9.39-6.24-2.67-2.68-4.74-5.85-6.2-9.51-1.46-3.66-2.2-7.67-2.2-12.03s.73-8.37,2.2-12.03c1.46-3.66,3.53-6.84,6.2-9.55,2.67-2.71,5.8-4.8,9.39-6.29,3.59-1.48,7.51-2.22,11.76-2.22s8.26.74,11.85,2.22c3.59,1.48,6.72,3.58,9.39,6.29,2.67,2.71,4.74,5.9,6.2,9.55,1.46,3.66,2.2,7.67,2.2,12.03s-.73,8.28-2.2,11.94c-1.46,3.66-3.53,6.84-6.2,9.55-2.67,2.71-5.8,4.81-9.39,6.29-3.59,1.48-7.54,2.22-11.85,2.22ZM1352.31,352.07c3.27,0,6.3-.57,9.09-1.72,2.79-1.14,5.18-2.78,7.19-4.9,2.01-2.12,3.58-4.62,4.7-7.5,1.12-2.88,1.68-6.02,1.68-9.43s-.56-6.63-1.68-9.51c-1.12-2.88-2.69-5.38-4.7-7.5-2.01-2.12-4.41-3.77-7.19-4.94-2.79-1.17-5.82-1.76-9.09-1.76s-6.31.59-9.09,1.76c-2.79,1.17-5.18,2.82-7.19,4.94-2.01,2.12-3.56,4.62-4.65,7.5-1.09,2.88-1.64,6.05-1.64,9.51s.55,6.55,1.64,9.43c1.09,2.88,2.64,5.38,4.65,7.5,2.01,2.12,4.41,3.76,7.19,4.9,2.79,1.15,5.82,1.72,9.09,1.72Z"/>
        <path class="cls-4" d="M1396.77,357.69v-58.67h6.12l39.46,50.79-1.21,1.51c-.17-.89-.3-2.23-.39-4.02-.09-1.79-.17-3.81-.26-6.08-.09-2.26-.16-4.62-.22-7.08-.06-2.46-.1-4.86-.13-7.21s-.04-4.47-.04-6.37v-21.54h6.72v58.67h-6.29l-39.29-50.12,1.03-1.76c.17,2.24.33,4.44.47,6.62.14,2.18.26,4.27.34,6.29.09,2.01.16,3.86.22,5.53.06,1.68.1,3.1.13,4.27.03,1.17.04,2.01.04,2.51v26.65h-6.72Z"/>
        <path class="cls-4" d="M1482.76,357.69v-29.25l.6,4.11-24.38-33.52h8.19l19.99,27.82-1.81-.17,18.35-27.66h7.75l-23.35,34.45,1.29-5.7v29.92h-6.63Z"/>
        <path class="cls-4" d="M1539.03,358.52c-3.04,0-5.92-.42-8.62-1.26-2.7-.84-5.17-2.1-7.41-3.77s-4.22-3.74-5.95-6.2l4.65-5.03c2.7,3.74,5.47,6.37,8.31,7.88,2.84,1.51,6.04,2.26,9.61,2.26,2.58,0,4.94-.42,7.07-1.26,2.12-.84,3.79-2.01,5-3.52,1.21-1.51,1.81-3.24,1.81-5.2,0-1.28-.22-2.43-.65-3.44-.43-1.01-1.08-1.9-1.94-2.68-.86-.78-1.92-1.48-3.19-2.1-1.26-.61-2.71-1.17-4.35-1.68-1.64-.5-3.46-1.01-5.47-1.51-2.93-.67-5.5-1.47-7.71-2.39-2.21-.92-4.08-2.05-5.6-3.39-1.52-1.34-2.67-2.89-3.45-4.65s-1.16-3.84-1.16-6.24.5-4.41,1.51-6.37c1-1.96,2.4-3.65,4.18-5.07s3.88-2.53,6.29-3.31c2.41-.78,5-1.17,7.75-1.17,3.1,0,5.87.41,8.32,1.22,2.44.81,4.61,2,6.5,3.56,1.9,1.56,3.53,3.44,4.91,5.62l-4.74,4.53c-1.21-1.84-2.57-3.44-4.09-4.78-1.52-1.34-3.19-2.36-5-3.06-1.81-.7-3.81-1.05-5.99-1.05-2.53,0-4.75.42-6.68,1.26-1.92.84-3.43,2-4.52,3.48-1.09,1.48-1.64,3.17-1.64,5.07,0,1.4.26,2.64.78,3.73.52,1.09,1.34,2.04,2.46,2.85,1.12.81,2.59,1.54,4.39,2.18,1.81.64,3.98,1.24,6.51,1.8,2.99.67,5.67,1.48,8.06,2.43,2.38.95,4.42,2.08,6.12,3.39,1.69,1.31,2.99,2.84,3.88,4.57.89,1.73,1.34,3.72,1.34,5.95,0,3.47-.89,6.5-2.67,9.09-1.78,2.6-4.26,4.62-7.45,6.08-3.19,1.45-6.91,2.18-11.16,2.18Z"/>
        <path class="cls-4" d="M1568.84,357.69l23.09-58.67h7.67l22.92,58.67h-7.32l-14.73-38.05c-.4-1.06-.85-2.3-1.34-3.73-.49-1.42-1-2.9-1.55-4.44-.55-1.54-1.06-3.03-1.55-4.48-.49-1.45-.93-2.74-1.33-3.86h1.72c-.46,1.4-.93,2.81-1.42,4.23-.49,1.42-.99,2.85-1.51,4.27s-1.03,2.84-1.55,4.23c-.52,1.4-1.03,2.79-1.55,4.19l-14.65,37.63h-6.89ZM1578.66,341.51l2.5-6.37h28.52l2.76,6.37h-33.78ZM1590.38,294.24l-1.98-3.52,14.39-8.8,3.53,5.87-15.94,6.45Z"/>
        <path class="cls-4" d="M1660.26,358.52c-4.42,0-8.53-.75-12.32-2.26-3.79-1.51-7.12-3.6-9.99-6.29-2.87-2.68-5.1-5.85-6.68-9.51-1.58-3.66-2.37-7.64-2.37-11.94s.79-8.28,2.37-11.94c1.58-3.66,3.76-6.83,6.55-9.51,2.79-2.68,6.06-4.76,9.82-6.24,3.76-1.48,7.8-2.22,12.11-2.22,3.04,0,6.04.42,9,1.26,2.96.84,5.64,2.01,8.06,3.52s4.37,3.21,5.86,5.11l-4.48,4.44c-1.61-1.62-3.42-3.02-5.43-4.19-2.01-1.17-4.12-2.1-6.33-2.77-2.21-.67-4.41-1.01-6.59-1.01-3.39,0-6.54.59-9.43,1.76-2.9,1.17-5.44,2.81-7.63,4.9s-3.88,4.58-5.08,7.46c-1.21,2.88-1.81,6.02-1.81,9.43s.62,6.38,1.85,9.26c1.24,2.88,2.99,5.39,5.26,7.54,2.27,2.15,4.9,3.81,7.88,4.99s6.2,1.76,9.65,1.76c2.7,0,5.24-.39,7.63-1.17,2.38-.78,4.47-1.89,6.25-3.31,1.78-1.42,3.16-3.09,4.14-4.99.98-1.9,1.46-3.94,1.46-6.12v-2.93l1.38,1.68h-21.2v-6.45h26.54c.06.45.11.96.17,1.55.06.59.1,1.17.13,1.76.03.59.04,1.13.04,1.63,0,3.63-.69,6.97-2.07,10.02-1.38,3.05-3.29,5.67-5.73,7.88-2.44,2.21-5.27,3.91-8.49,5.11-3.22,1.2-6.72,1.8-10.51,1.8Z"/>
      </g>
      <g>
        <path class="cls-4" d="M415.53,243.07l80.46-195.56h22.35l79.9,195.56h-34.64l-62.58-158.4h11.73l-63.14,158.4h-34.08ZM455.2,205.35v-27.94h103.64v27.94h-103.64Z"/>
        <path class="cls-4" d="M673.94,245.86c-15.46,0-28.59-2.79-39.39-8.38-10.8-5.59-20.49-13.78-29.05-24.58l21.79-21.79c5.4,7.82,11.82,13.92,19.28,18.3,7.45,4.38,16.95,6.57,28.5,6.57,10.8,0,19.42-2.24,25.84-6.7,6.43-4.47,9.64-10.62,9.64-18.44,0-6.52-1.68-11.83-5.03-15.92-3.35-4.09-7.78-7.49-13.27-10.2-5.5-2.7-11.55-5.12-18.16-7.26-6.61-2.14-13.23-4.56-19.83-7.26-6.61-2.7-12.67-6.1-18.16-10.2-5.5-4.09-9.92-9.4-13.27-15.92-3.35-6.52-5.03-14.81-5.03-24.86,0-11.55,2.84-21.37,8.52-29.47,5.68-8.1,13.36-14.29,23.05-18.58,9.68-4.28,20.48-6.43,32.41-6.43,12.85,0,24.35,2.51,34.5,7.54,10.15,5.03,18.39,11.45,24.72,19.28l-21.79,21.79c-5.59-6.33-11.41-11.03-17.46-14.11-6.05-3.07-12.99-4.61-20.81-4.61-9.69,0-17.28,1.96-22.77,5.87-5.5,3.91-8.24,9.41-8.24,16.48,0,5.96,1.68,10.76,5.03,14.39,3.35,3.63,7.78,6.7,13.27,9.22,5.49,2.51,11.55,4.89,18.16,7.12,6.61,2.24,13.22,4.75,19.83,7.54,6.61,2.79,12.66,6.38,18.16,10.76,5.49,4.38,9.92,10.01,13.27,16.9,3.35,6.89,5.03,15.55,5.03,25.98,0,17.51-6.19,31.38-18.58,41.63-12.39,10.24-29.1,15.36-50.15,15.36Z"/>
        <path class="cls-4" d="M825.08,245.86c-12.11,0-23.05-3.07-32.83-9.22-9.78-6.15-17.51-14.48-23.19-25-5.68-10.52-8.52-22.3-8.52-35.34s2.84-25.09,8.52-35.62c5.68-10.52,13.41-18.9,23.19-25.14,9.78-6.24,20.72-9.36,32.83-9.36,10.24,0,19.32,2.19,27.24,6.57,7.91,4.38,14.2,10.38,18.86,18.02,4.65,7.64,6.98,16.3,6.98,25.98v38.55c0,9.69-2.28,18.35-6.84,25.98-4.57,7.64-10.85,13.65-18.86,18.02-8.01,4.37-17.14,6.57-27.38,6.57ZM830.11,216.81c11.36,0,20.53-3.82,27.52-11.45,6.98-7.63,10.48-17.41,10.48-29.33,0-8.01-1.58-15.09-4.75-21.23-3.17-6.15-7.59-10.94-13.27-14.39-5.68-3.44-12.34-5.17-19.97-5.17s-14.02,1.72-19.7,5.17c-5.68,3.45-10.15,8.24-13.41,14.39-3.26,6.15-4.89,13.23-4.89,21.23s1.63,15.09,4.89,21.23c3.26,6.15,7.73,10.94,13.41,14.39,5.68,3.45,12.24,5.17,19.7,5.17ZM866.14,243.07v-36.04l5.31-32.69-5.31-32.41v-32.97h30.73v134.1h-30.73Z"/>
        <path class="cls-4" d="M935.14,243.07V47.51h32.13v195.56h-32.13ZM957.21,156.46v-29.33h109.23v29.33h-109.23ZM1059.46,243.07V47.51h32.13v195.56h-32.13Z"/>
        <path class="cls-4" d="M1189.92,243.07V47.51h32.13v195.56h-32.13ZM1211.99,243.07v-29.33h102.25v29.33h-102.25Z"/>
        <path class="cls-4" d="M1355.02,84.39c-5.22,0-9.55-1.77-12.99-5.31-3.45-3.54-5.17-7.91-5.17-13.13s1.72-9.59,5.17-13.13c3.44-3.54,7.77-5.31,12.99-5.31s9.78,1.77,13.13,5.31c3.35,3.54,5.03,7.92,5.03,13.13s-1.68,9.59-5.03,13.13c-3.35,3.54-7.73,5.31-13.13,5.31ZM1339.66,243.07V108.97h30.73v134.1h-30.73Z"/>
        <path class="cls-4" d="M1404.75,243.07V108.97h30.73v134.1h-30.73ZM1496.66,243.07v-77.38c0-8.94-2.84-16.29-8.52-22.07-5.68-5.77-12.99-8.66-21.93-8.66-5.96,0-11.27,1.31-15.92,3.91-4.66,2.61-8.29,6.24-10.9,10.9-2.61,4.66-3.91,9.97-3.91,15.92l-12.01-6.7c0-10.24,2.24-19.32,6.71-27.24,4.47-7.91,10.66-14.15,18.58-18.72,7.91-4.56,16.8-6.84,26.68-6.84s19,2.56,26.82,7.68c7.82,5.12,13.97,11.73,18.44,19.83,4.47,8.1,6.71,16.53,6.71,25.28v84.09h-30.73Z"/>
        <path class="cls-4" d="M1620.97,245.86c-13.41,0-25.47-3.03-36.18-9.08-10.71-6.05-19.18-14.39-25.42-25-6.24-10.62-9.36-22.53-9.36-35.76s3.07-25.09,9.22-35.62c6.15-10.52,14.48-18.86,25-25,10.52-6.15,22.21-9.22,35.06-9.22s23.51,2.89,33.1,8.66c9.59,5.77,17.13,13.69,22.63,23.75,5.49,10.06,8.24,21.51,8.24,34.36,0,2.23-.14,4.52-.42,6.84-.28,2.33-.7,4.89-1.26,7.68h-110.07v-25.14h94.15l-11.46,10.06c-.38-8.19-1.96-15.09-4.75-20.67-2.79-5.59-6.75-9.87-11.87-12.85-5.12-2.98-11.41-4.47-18.86-4.47-7.82,0-14.62,1.68-20.39,5.03-5.77,3.35-10.24,8.06-13.41,14.11-3.17,6.05-4.75,13.27-4.75,21.65s1.68,15.74,5.03,22.07c3.35,6.33,8.1,11.22,14.25,14.67,6.15,3.45,13.22,5.17,21.23,5.17,6.89,0,13.27-1.21,19.14-3.63,5.87-2.42,10.85-5.96,14.95-10.62l19.56,19.83c-6.52,7.64-14.44,13.41-23.75,17.32-9.32,3.91-19.18,5.87-29.61,5.87Z"/>
      </g>
      <g>
        <g>
          <g>
            <path class="cls-2" d="M259.61,395.41l-209.06-71c-20.62-7-34.55-26.76-34.55-49.01V110.55c0-35.21,33.64-60.09,66.27-49.01l142.8,48.49c20.62,7,34.55,26.76,34.55,49.01v236.36Z"/>
            <path class="cls-3" d="M351.1,352.53l-209.06-71c-20.62-7-34.55-26.76-34.55-49.01V67.68c0-35.21,33.64-60.09,66.27-49.01l142.8,48.49c20.62,7,34.55,26.76,34.55,49.01v236.36Z"/>
          </g>
          <path class="cls-1" d="M225.06,110.03c20.62,7,34.55,26.76,34.55,49.01v236.36l-209.06-71c-20.62-7-34.55-26.76-34.55-49.01V110.55"/>
        </g>
        <circle class="cls-4" cx="183.22" cy="195.12" r="17.81"/>
      </g>
    </g>
  </g>
</svg>