<svg width="1454" height="414" viewBox="0 0 1454 414" fill="none" xmlns="http://www.w3.org/2000/svg">
<g clip-path="url(#clip0_67_3)">
<path d="M1.55359 412.2V319.173H9.88098V323.207V407.546V412.2H1.55359ZM5.46871 412.2V404.257H25.355C33.496 404.257 40.6426 402.705 46.8571 399.602C53.0094 396.499 57.7946 392.031 61.2125 386.135C64.6305 380.24 66.3084 373.227 66.3084 364.973C66.3084 356.781 64.6305 349.83 61.2125 344.183C57.7946 338.535 53.0094 334.253 46.9192 331.399C40.7669 328.544 33.6203 327.116 25.355 327.116H5.96586V319.173H25.355C35.1739 319.173 43.812 320.973 51.3315 324.572C58.7889 328.171 64.6305 333.447 68.7942 340.273C72.9579 347.162 75.0086 355.354 75.0086 364.911C75.0086 374.592 72.8957 382.97 68.732 390.169C64.5683 397.306 58.7267 402.767 51.2072 406.553C43.6877 410.276 35.0496 412.138 25.2929 412.138H5.46871V412.2Z" fill="#3FB2D2"/>
<path d="M111.55 412.262V319.235H137.402C144.051 319.235 149.707 320.228 154.492 322.214C159.215 324.2 162.819 327.054 165.305 330.902C167.791 334.688 169.034 339.28 169.034 344.679C169.034 350.203 167.666 354.919 164.994 358.705C162.322 362.553 158.345 365.345 153.062 367.269C147.78 369.131 141.255 370.062 133.487 370.062H126.775L120.623 362.49H133.238C139.453 362.49 144.549 361.87 148.588 360.629C152.627 359.387 155.61 357.402 157.537 354.795C159.463 352.126 160.458 348.837 160.458 344.803C160.458 340.894 159.588 337.605 157.848 334.998C156.108 332.392 153.497 330.468 150.017 329.164C146.599 327.861 142.311 327.241 137.278 327.241H119.877V412.324H111.55V412.262ZM160.209 412.262L117.764 362.553H127.956L171.147 412.262H160.209Z" fill="#3FB2D2"/>
<path d="M214.896 319.297H206.569V412.262H214.896V319.297Z" fill="#3FB2D2"/>
<path d="M284.063 413.69L245.161 319.297H254.358L286.984 400.968H283.939L316.627 319.297H325.7L286.736 413.69H284.063Z" fill="#3FB2D2"/>
<path d="M364.106 319.359H355.779V412.324H364.106V319.359Z" fill="#3FB2D2"/>
<path d="M476.774 413.876L410.217 331.957H415.127V412.324H406.799L406.861 317.932H409.347L475.966 399.912H470.933L470.995 319.359H479.322L479.26 413.876H476.774Z" fill="#3FB2D2"/>
<path d="M560.048 413.876C551.721 413.876 544.139 411.828 537.365 407.67C530.529 403.512 525.185 397.802 521.208 390.604C517.231 383.405 515.242 375.151 515.242 365.904C515.242 356.657 517.23 348.465 521.146 341.204C525.123 333.943 530.529 328.234 537.428 324.076C544.326 319.918 552.094 317.87 560.732 317.87C568.313 317.87 575.087 319.297 581.115 322.214C587.143 325.131 592.177 329.164 596.216 334.502L590.188 340.273C587.019 335.681 582.855 332.081 577.822 329.599C572.788 327.117 567.133 325.875 560.918 325.875C553.772 325.875 547.371 327.613 541.778 331.026C536.122 334.502 531.71 339.218 528.541 345.238C525.371 351.258 523.756 358.146 523.756 365.904C523.756 373.537 525.309 380.364 528.479 386.446C531.648 392.465 535.936 397.182 541.467 400.595C546.936 404.008 553.15 405.684 560.048 405.684C566.946 405.684 572.912 404.195 577.946 401.154C582.98 398.113 586.833 393.955 589.505 388.556C592.177 383.218 593.544 376.95 593.606 369.814L597.149 372.358H557.811V364.538H602.058C602.12 365.035 602.182 365.593 602.182 366.152V367.828C602.182 376.888 600.442 384.894 597.024 391.845C593.606 398.795 588.635 404.195 582.296 408.104C575.895 411.952 568.5 413.876 560.11 413.876" fill="#3FB2D2"/>
<path d="M701.676 412.449L701.738 327.365H670.728V319.421H741.014V327.365H710.066L710.003 412.449H701.676Z" fill="#3FB2D2"/>
<path d="M807.446 414C799.119 414 791.537 411.952 784.639 407.856C777.741 403.76 772.335 398.113 768.295 390.852C764.318 383.591 762.329 375.337 762.329 366.028C762.329 356.657 764.318 348.279 768.295 340.956C772.272 333.633 777.741 327.985 784.639 323.951C791.537 319.918 799.119 317.932 807.446 317.932C815.774 317.932 823.231 319.98 830.129 324.076C837.027 328.109 842.496 333.819 846.535 341.08C850.575 348.341 852.563 356.657 852.563 366.09C852.563 375.399 850.513 383.715 846.535 390.976C842.496 398.237 837.027 403.884 830.129 407.98C823.231 412.076 815.649 414.062 807.446 414.062M807.446 405.932C814.158 405.932 820.31 404.319 825.841 401.03C831.372 397.74 835.784 393.086 839.016 387.066C842.247 381.046 843.863 374.034 843.863 366.028C843.863 358.084 842.247 351.072 839.016 344.99C835.784 338.97 831.372 334.253 825.841 330.964C820.31 327.675 814.158 325.999 807.446 325.999C800.735 325.999 794.458 327.675 788.989 330.964C783.458 334.253 779.108 338.97 775.815 344.99C772.521 351.009 770.905 358.022 770.905 366.028C770.905 373.972 772.521 380.984 775.815 387.066C779.108 393.086 783.458 397.74 788.989 401.03C794.52 404.319 800.673 405.932 807.446 405.932Z" fill="#3FB2D2"/>
<path d="M927.634 414C919.307 414 911.787 411.952 904.951 407.794C898.115 403.636 892.771 397.927 888.732 390.728C884.754 383.529 882.766 375.275 882.766 366.09C882.766 356.843 884.754 348.589 888.669 341.39C892.647 334.129 898.053 328.42 904.951 324.262C911.849 320.104 919.618 318.056 928.256 318.056C935.837 318.056 942.611 319.483 948.701 322.4C954.729 325.317 959.763 329.351 963.802 334.688L957.774 340.459C954.605 335.867 950.441 332.267 945.408 329.785C940.374 327.303 934.719 326.061 928.504 326.061C921.358 326.061 914.957 327.799 909.364 331.212C903.709 334.688 899.296 339.404 896.127 345.424C892.957 351.444 891.342 358.333 891.342 366.09C891.342 373.723 892.895 380.55 896.065 386.57C899.234 392.652 903.522 397.368 909.053 400.719C914.584 404.133 920.736 405.808 927.634 405.808C934.532 405.808 940.498 404.319 945.532 401.278C950.566 398.237 954.419 394.079 957.091 388.68C959.763 383.343 961.13 377.075 961.192 369.938L964.735 372.482H925.397V364.663H969.644C969.706 365.159 969.768 365.718 969.768 366.276V367.952C969.768 377.012 968.028 385.018 964.61 391.969C961.192 398.92 956.221 404.319 949.882 408.166C943.481 412.014 936.086 413.938 927.696 413.938" fill="#3FB2D2"/>
<path d="M1004.63 412.511V319.483H1012.96V412.511H1004.63ZM1009.17 412.511V404.567H1059.82V412.511H1009.17ZM1009.17 369.007V360.939H1056.52V369.007H1009.17ZM1009.17 327.427V319.483H1058.45V327.427H1009.17Z" fill="#3FB2D2"/>
<path d="M1117.55 412.573V327.489H1086.6V319.545L1156.89 319.607V327.489H1125.88V412.573H1117.55Z" fill="#3FB2D2"/>
<path d="M1191.25 412.573V319.607H1199.58V412.573H1191.25ZM1195.85 368.945V361.001H1253.58V368.945H1195.85ZM1249.61 412.635V319.607H1257.93V412.635H1249.61Z" fill="#3FB2D2"/>
<path d="M1300.63 412.635V319.607H1308.95V412.635H1300.63ZM1305.16 412.635V404.691H1355.81V412.635H1305.16ZM1305.23 369.069V361.001H1352.58V369.069H1305.23ZM1305.23 327.551V319.607H1354.51V327.551H1305.23Z" fill="#3FB2D2"/>
<path d="M1394.4 412.635V319.607H1420.26C1426.9 319.607 1432.56 320.6 1437.35 322.586C1442.07 324.572 1445.73 327.427 1448.16 331.275C1450.64 335.06 1451.89 339.653 1451.89 345.052C1451.89 350.451 1450.52 355.292 1447.85 359.077C1445.18 362.925 1441.2 365.718 1435.92 367.641C1430.7 369.503 1424.17 370.434 1416.34 370.434H1409.69L1403.54 362.863H1416.15C1422.37 362.863 1427.53 362.242 1431.5 361.001C1435.54 359.76 1438.53 357.774 1440.45 355.167C1442.38 352.499 1443.37 349.21 1443.37 345.176C1443.37 341.142 1442.5 337.977 1440.7 335.37C1438.96 332.764 1436.35 330.84 1432.87 329.537C1429.45 328.234 1425.16 327.613 1420.13 327.613H1402.73V412.697H1394.4V412.635ZM1443.06 412.635L1400.62 362.925H1410.81L1454 412.635H1443.06Z" fill="#3FB2D2"/>
<path d="M1070.13 207.9C1069.63 200.204 1069.39 192.199 1069.39 183.883V129.208C1069.39 115.865 1066.47 104.322 1060.69 94.5789C1054.91 84.8355 1046.64 77.3884 1035.89 72.2374C1025.14 67.0865 1012.46 64.48 997.858 64.48C975.361 64.48 954.854 70.3756 936.397 82.1049L951.622 112.204C958.085 107.736 964.983 104.322 972.13 101.902C979.339 99.4816 987.107 98.2404 995.434 98.2404C1002.77 98.2404 1008.98 99.4816 1014.14 101.902C1019.3 104.322 1023.27 107.922 1026.01 112.7C1028.74 117.479 1030.11 123.064 1030.11 129.581V135.29C1027.13 134.483 1024.08 133.739 1020.98 133.056C1014.08 131.566 1006.06 130.76 996.926 130.76C981.7 130.76 968.898 133.056 958.458 137.586C948.018 142.117 940.188 148.261 935.03 155.956C929.871 163.651 927.261 172.34 927.261 182.083C927.261 192.633 929.561 201.632 934.097 209.141C938.634 216.65 945.221 222.422 953.735 226.456C962.249 230.49 972.006 232.538 982.943 232.538C993.88 232.538 1002.89 230.428 1011.22 226.332C1019.55 222.174 1026.32 216.278 1031.6 208.707C1031.66 208.583 1031.73 208.458 1031.85 208.334C1032.04 209.638 1032.16 210.941 1032.41 212.182C1033.34 217.643 1034.27 223.291 1035.27 229.186H1072.37C1071.37 222.732 1070.57 215.595 1070.07 207.9M1025.26 186.179C1022.03 191.144 1017.62 194.867 1012.03 197.288C1006.43 199.708 1000.22 200.949 993.321 200.949C987.666 200.949 982.881 200.142 979.028 198.529C975.175 196.915 972.192 194.557 970.203 191.516C968.153 188.475 967.158 185.062 967.158 181.214C967.158 176.746 968.401 172.836 970.949 169.361C973.497 165.885 977.412 163.217 982.694 161.293C987.977 159.369 994.751 158.376 1003.08 158.376C1009.54 158.376 1015.63 158.873 1021.35 159.928C1024.39 160.486 1027.31 161.231 1030.17 162.038V168.43C1030.17 175.319 1028.56 181.214 1025.33 186.179" fill="#14141a"/>
<path d="M1142.41 4.59241H1101.33V229.124H1142.41V4.59241Z" fill="#14141a"/>
<path d="M1218.78 4.59241H1177.7V229.124H1218.78V4.59241Z" fill="#14141a"/>
<path d="M1275.64 47.4756C1270.98 47.4756 1266.82 46.4826 1263.15 44.4347C1259.49 42.3867 1256.57 39.594 1254.45 36.0566C1252.34 32.5192 1251.28 28.4853 1251.28 24.0791C1251.28 19.6729 1252.34 15.639 1254.45 12.1016C1256.57 8.56419 1259.49 5.77151 1263.15 3.72354C1266.82 1.67557 1270.98 0.682617 1275.64 0.682617C1280.31 0.682617 1284.22 1.67557 1287.95 3.72354C1291.74 5.77151 1294.6 8.50214 1296.65 12.1016C1298.7 15.639 1299.69 19.6729 1299.69 24.0791C1299.69 28.4853 1298.7 32.5192 1296.65 36.0566C1294.6 39.594 1291.74 42.3867 1287.95 44.4347C1284.16 46.4826 1280.06 47.4756 1275.64 47.4756ZM1254.08 68.7H1295.16V229.124H1254.08V68.7Z" fill="#14141a"/>
<path d="M1387.63 233.406C1372.03 233.406 1358.86 231.048 1348.04 226.269C1337.29 221.491 1327.35 214.788 1318.21 206.038L1340.71 178.98C1347.98 186.241 1355.44 191.578 1362.9 194.805C1370.42 198.032 1378.49 199.646 1387.26 199.646C1392.1 199.646 1396.45 199.025 1400.18 197.846C1403.91 196.605 1406.83 194.867 1408.82 192.509C1410.81 190.151 1411.87 187.296 1411.87 183.821C1411.87 179.973 1410.44 176.808 1407.64 174.388C1404.78 171.967 1401.3 170.043 1397.14 168.616C1392.97 167.189 1387.07 165.699 1379.36 164.024C1367.99 161.417 1358.67 158.687 1351.4 155.956C1344.07 153.225 1337.79 148.633 1332.51 142.117C1327.22 135.662 1324.61 126.912 1324.61 115.989C1324.61 105.874 1327.35 96.8751 1332.82 89.1176C1338.29 81.2981 1345.99 75.2783 1355.94 71.0583C1365.88 66.7762 1377.25 64.6661 1389.99 64.6661C1402.73 64.6661 1414.97 66.652 1425.29 70.5618C1435.61 74.5336 1444.55 80.119 1452.07 87.442L1431.38 113.879C1425.72 108.604 1419.45 104.57 1412.67 101.716C1405.9 98.861 1398.19 97.4336 1389.68 97.4336C1384.4 97.4336 1380.05 98.1784 1376.57 99.5437C1373.15 100.971 1370.6 102.771 1368.99 105.005C1367.37 107.239 1366.56 109.846 1366.56 112.886C1366.56 116.548 1367.87 119.465 1370.54 121.699C1373.15 123.933 1376.51 125.671 1380.42 126.85C1384.4 128.029 1389.99 129.581 1397.32 131.38C1408.7 133.987 1418.14 136.717 1425.79 139.572C1433.43 142.427 1439.96 147.143 1445.42 153.722C1450.89 160.3 1453.63 169.299 1453.63 180.594C1453.63 191.33 1450.71 200.701 1444.8 208.707C1438.9 216.712 1430.94 222.794 1420.94 226.952C1410.87 231.11 1399.81 233.158 1387.63 233.158" fill="#14141a"/>
<path d="M97.5051 0L0 229.186H28.0273L52.9473 169.051L117.578 168.988L108.753 145.902H62.5176L97.5672 61.377L167.48 229.124L194.948 229.186L97.5051 0Z" fill="#14141a"/>
<path d="M317.062 72.0513V155.025C317.062 167.561 315.012 177.987 310.848 186.179C306.684 194.371 301.029 200.391 293.945 204.238C286.86 208.086 279.03 210.01 270.516 210.01C262.002 210.01 254.358 208.21 248.144 204.549C241.929 200.887 237.269 195.612 234.161 188.599C230.992 181.587 229.438 172.836 229.438 162.286V72.0513H205.078V164.086C205.078 178.856 207.563 191.392 212.535 201.632C217.507 211.872 224.342 219.691 233.105 225.028C241.805 230.365 251.997 233.096 263.556 233.096C275.115 233.096 285.058 230.738 294.007 226.083C302.956 221.429 310.351 214.416 316.192 204.983C316.565 204.362 316.876 203.618 317.249 202.997L317.684 229.124H341.112V72.0513H317.062Z" fill="#14141a"/>
<path d="M469.503 199.398C464.408 203.432 459.933 206.348 455.956 208.086C451.979 209.824 447.318 210.693 441.787 210.693C434.267 210.693 428.239 208.521 423.703 204.176C419.166 199.832 416.867 193.192 416.867 184.255V93.7101H478.949V72.1134H416.867V26.8098H392.817V72.1134H365.722L359.942 93.7101H392.817V184.255C392.817 200.639 397.105 212.927 405.743 220.994C414.381 229.124 425.878 233.158 440.295 233.158C448.374 233.158 455.707 231.855 462.17 229.186C468.633 226.58 474.848 222.422 480.752 216.712L469.503 199.398Z" fill="#14141a"/>
<path d="M572.664 233.096C558.06 233.096 544.574 229.621 532.207 222.794C519.841 215.906 510.022 206.224 502.689 193.75C495.356 181.276 491.751 166.878 491.751 150.433C491.751 133.987 495.418 119.899 502.689 107.425C510.022 94.9512 519.841 85.394 532.207 78.6916C544.574 71.9892 558.184 68.6379 572.974 68.6379C587.765 68.6379 600.691 71.9892 612.996 78.6916C625.238 85.394 634.995 94.9512 642.204 107.425C649.412 119.899 653.017 134.235 653.017 150.433C653.017 166.63 649.412 181.276 642.204 193.75C634.995 206.224 625.238 215.906 612.996 222.794C600.691 229.683 587.268 233.096 572.664 233.096ZM572.664 210.941C582.607 210.941 591.804 208.458 600.38 203.494C608.894 198.529 615.606 191.454 620.639 182.207C625.611 172.96 628.097 162.41 628.097 150.433C628.097 138.455 625.673 127.967 620.826 118.844C615.978 109.721 609.267 102.709 600.753 97.7439C592.239 92.7791 582.98 90.2968 573.036 90.2968C563.093 90.2968 553.523 92.7791 544.885 97.7439C536.247 102.709 529.349 109.721 524.191 118.844C519.033 127.967 516.423 138.579 516.423 150.743C516.423 162.907 519.033 172.96 524.191 182.207C529.349 191.454 536.185 198.529 544.761 203.494C553.274 208.458 562.596 210.941 572.726 210.941" fill="#14141a"/>
<path d="M676.756 1.24114L733.867 136.593L792.097 1.17908L850.14 137.772L907.934 1.24114H947.583L850.202 230.427L792.097 94.8271L734.364 230.365L636.921 1.24114H676.756Z" fill="#14141a"/>
</g>
<defs>
<clipPath id="clip0_67_3">
<rect width="1454" height="414" fill="#14141a"/>
</clipPath>
</defs>
</svg>
