<?xml version="1.0" encoding="UTF-8"?>
<!-- Generator: https://ezgif.com/png-to-svg -->
<svg version="1.1" xmlns="http://www.w3.org/2000/svg" width="960" height="149">
<path d="M0 0 C6.67 -0.21 13.34 -0.39 20.01 -0.49 C22.28 -0.54 24.55 -0.6 26.81 -0.68 C45.63 -1.31 45.63 -1.31 51.4 1.89 C53.68 4.15 55.3 6.29 57 9 C58.31 10.52 59.64 12.02 61 13.5 C62 14.67 63 15.83 64 17 C64.33 17.33 64.66 17.66 65 18 C65.14 20.12 65.21 22.25 65.26 24.38 C65.27 25.05 65.29 25.71 65.3 26.4 C65.43 32.58 65.5 38.76 65.55 44.94 C65.58 49.1 65.64 53.24 65.73 57.39 C65.83 61.41 65.88 65.42 65.89 69.44 C65.91 70.96 65.94 72.49 65.98 74.01 C66.2 81.77 66.12 87.67 60.66 93.7 C59.88 94.42 59.09 95.14 58.28 95.89 C55.9 98.1 54.27 100.39 52.47 103.09 C46.86 108.63 39.84 107.9 32.42 107.86 C29.09 107.79 25.76 107.68 22.44 107.56 C20.17 107.52 17.89 107.48 15.62 107.44 C10.08 107.34 4.54 107.19 -1 107 C-1.03 103.19 -1.05 99.38 -1.06 95.56 C-1.07 94.47 -1.08 93.39 -1.09 92.26 C-1.09 91.23 -1.09 90.19 -1.1 89.13 C-1.1 88.17 -1.11 87.21 -1.11 86.22 C-1 84 -1 84 0 83 C1.99 82.93 3.98 82.92 5.98 82.93 C7.21 82.92 8.43 82.91 9.7 82.9 C12.29 82.88 14.89 82.89 17.48 82.92 C19.33 82.89 19.33 82.89 21.23 82.87 C22.92 82.87 22.92 82.87 24.65 82.87 C29.51 81.61 32.29 79.2 35 75 C35.95 71.68 35.96 68.56 35.89 65.12 C35.9 64.19 35.9 63.26 35.91 62.3 C35.91 60.34 35.89 58.39 35.86 56.43 C35.81 53.44 35.84 50.46 35.87 47.47 C35.86 45.56 35.85 43.65 35.83 41.75 C35.85 40.41 35.85 40.41 35.86 39.06 C35.74 34.41 35.35 31.83 31.95 28.52 C30.98 27.69 30 26.86 29 26 C29 25.34 29 24.68 29 24 C19.43 24 9.86 24 0 24 C0 16.08 0 8.16 0 0 Z " fill="#000000" transform="translate(717,21)"/>
<path d="M0 0 C14.52 0 29.04 0 44 0 C44.52 21.69 44.52 21.69 44.63 31 C44.71 37.33 44.8 43.66 44.98 49.99 C45.12 55.1 45.2 60.21 45.23 65.32 C45.26 67.26 45.3 69.2 45.37 71.14 C45.93 87.12 45.93 87.12 41.16 93 C38.53 95.79 35.7 98.27 32.63 100.57 C30.42 102.42 30.42 102.42 27 107 C18.09 107 9.18 107 0 107 C0 71.69 0 36.38 0 0 Z " fill="#000000" transform="translate(107,21)"/>
<path d="M0 0 C6.75 -0.32 13.47 -0.6 20.22 -0.77 C22.51 -0.84 24.8 -0.93 27.08 -1.06 C47.11 -2.1 47.11 -2.1 53.38 3.04 C56.74 6.37 59.41 10.05 62 14 C62.53 14.59 63.06 15.18 63.61 15.79 C65.54 18.85 65.43 21.2 65.5 24.81 C65.52 25.49 65.53 26.17 65.55 26.86 C65.6 29.1 65.62 31.33 65.64 33.57 C65.66 34.72 65.66 34.72 65.67 35.9 C65.72 39.96 65.76 44.02 65.78 48.09 C65.8 52.26 65.88 56.44 65.98 60.61 C66.04 63.84 66.06 67.07 66.07 70.3 C66.08 71.84 66.1 73.38 66.15 74.92 C66.48 86.88 66.48 86.88 62.95 91.96 C60.37 94.52 60.37 94.52 57.61 96.82 C55.1 98.91 53.47 100.94 51.57 103.58 C48.83 106.75 46.98 107.56 42.8 107.91 C40.8 107.91 38.81 107.86 36.82 107.78 C35.76 107.77 34.71 107.76 33.62 107.75 C30.26 107.7 26.91 107.6 23.56 107.5 C21.28 107.46 19 107.42 16.72 107.39 C11.14 107.31 5.58 107.15 0 107 C0 99.08 0 91.16 0 83 C1.93 83.02 3.86 83.04 5.84 83.06 C8.4 83.04 10.95 83.02 13.5 83 C15.4 83.03 15.4 83.03 17.34 83.06 C23.11 82.97 28.13 82.78 32.85 79.22 C38.08 72.9 37.15 64.09 36.99 56.32 C36.94 53.51 36.97 50.7 37.01 47.89 C37.23 37.33 37.23 37.33 33.38 27.78 C28.02 23.15 20.75 23.9 14.06 24 C12.7 23.99 11.33 23.98 9.97 23.96 C6.64 23.94 3.32 23.97 0 24 C0 16.08 0 8.16 0 0 Z " fill="#000000" transform="translate(879,21)"/>
<path d="M0 0 C0.86 0.01 1.72 0.02 2.61 0.03 C4.08 0.03 4.08 0.03 5.58 0.03 C7.16 0.07 7.16 0.07 8.77 0.11 C9.85 0.12 10.93 0.13 12.05 0.13 C15.5 0.16 18.95 0.23 22.41 0.29 C24.75 0.31 27.09 0.34 29.44 0.36 C35.18 0.41 40.92 0.51 46.66 0.6 C46.66 8.52 46.66 16.44 46.66 24.6 C44.65 24.58 42.63 24.56 40.56 24.54 C38.59 24.55 36.62 24.57 34.65 24.59 C33.29 24.6 31.94 24.59 30.58 24.57 C21.29 24.33 21.29 24.33 13.28 28.38 C8.76 34.89 9.59 43.69 9.69 51.28 C9.72 54.1 9.67 56.9 9.61 59.71 C9.33 70.45 9.33 70.45 13.81 79.82 C19.52 84.13 26.3 83.71 33.16 83.6 C34.46 83.61 35.76 83.62 37.1 83.64 C40.28 83.66 43.47 83.64 46.66 83.6 C46.66 91.52 46.66 99.44 46.66 107.6 C40.1 108 33.59 108.33 27.03 108.54 C24.81 108.62 22.59 108.74 20.37 108.88 C0.97 110.15 0.97 110.15 -6.44 103.78 C-10.51 99.7 -14 95.28 -17.34 90.6 C-17.67 90.27 -18 89.94 -18.34 89.6 C-18.5 87.46 -18.59 85.32 -18.65 83.18 C-18.66 82.5 -18.68 81.83 -18.7 81.14 C-18.87 74.9 -18.97 68.66 -19.05 62.42 C-19.1 58.23 -19.17 54.05 -19.3 49.86 C-19.43 45.81 -19.49 41.76 -19.52 37.7 C-19.54 36.16 -19.58 34.63 -19.64 33.09 C-19.95 25.06 -19.64 19.29 -14.16 13.06 C-12.1 10.94 -9.97 8.92 -7.76 6.96 C-6.11 5.46 -6.11 5.46 -4.26 2.78 C-2.34 0.6 -2.34 0.6 0 0 Z " fill="#000000" transform="translate(828.3412475585938,20.398727416992188)"/>
<path d="M0 0 C0.85 0 1.7 0.01 2.57 0.01 C3.53 0.01 4.49 0.01 5.48 0.01 C6.52 0.02 7.56 0.03 8.63 0.05 C9.7 0.05 10.76 0.05 11.85 0.05 C15.26 0.06 18.66 0.09 22.06 0.12 C24.37 0.13 26.67 0.13 28.97 0.14 C34.63 0.16 40.28 0.2 45.94 0.24 C45.94 8.16 45.94 16.08 45.94 24.24 C43.92 24.22 41.91 24.2 39.84 24.18 C37.87 24.19 35.9 24.21 33.93 24.23 C32.57 24.24 31.21 24.23 29.86 24.21 C20.56 23.96 20.56 23.96 12.56 28.06 C8.11 34.46 8.86 42.96 8.97 50.44 C9 53.17 8.95 55.89 8.89 58.62 C8.73 69.37 8.73 69.37 13.09 78.93 C18.68 83.89 25.32 83.46 32.44 83.3 C33.74 83.31 35.04 83.32 36.37 83.32 C39.56 83.34 42.75 83.29 45.94 83.24 C45.94 91.16 45.94 99.08 45.94 107.24 C39.56 107.66 33.23 108.01 26.85 108.23 C24.69 108.32 22.53 108.44 20.38 108.6 C9.53 109.37 -0.04 109.2 -9.11 102.56 C-17.28 95.28 -20.21 87.51 -20.94 76.82 C-21.26 69.72 -21.04 62.65 -20.77 55.56 C-20.66 52.28 -20.66 49.01 -20.65 45.74 C-20.64 42.56 -20.59 39.38 -20.52 36.2 C-20.49 34.7 -20.47 33.19 -20.46 31.69 C-20.29 18.62 -20.29 18.62 -15.11 13.41 C-13.78 12.33 -12.44 11.27 -11.06 10.24 C-9.75 8.8 -8.45 7.35 -7.19 5.87 C-2.4 0.28 -2.4 0.28 0 0 Z " fill="#000000" transform="translate(666.0627746582031,20.759490966796875)"/>
<path d="M0 0 C1.01 0 2.02 0 3.06 0.01 C4.77 0.01 4.77 0.01 6.52 0.01 C7.76 0.01 9 0.02 10.28 0.02 C12.18 0.02 12.18 0.02 14.11 0.03 C17.48 0.03 20.84 0.04 24.21 0.05 C27.64 0.06 31.07 0.07 34.5 0.07 C41.24 0.08 47.98 0.1 54.72 0.12 C55.39 3.01 56.05 5.91 56.72 8.81 C56.91 9.62 57.1 10.44 57.29 11.28 C59.09 19.19 59.09 19.19 58.72 23.12 C57.72 24.12 57.72 24.12 54.3 24.23 C52.78 24.23 51.26 24.23 49.74 24.22 C48.95 24.22 48.15 24.22 47.33 24.21 C44.77 24.21 42.21 24.2 39.65 24.18 C37.92 24.18 36.19 24.17 34.46 24.17 C30.21 24.16 25.97 24.14 21.72 24.12 C21.62 25.42 21.53 26.72 21.43 28.06 C20.64 35.83 18.93 43.43 17.34 51.07 C17 52.69 16.67 54.31 16.33 55.93 C15.46 60.17 14.58 64.41 13.69 68.65 C12.79 72.98 11.9 77.32 11 81.66 C9.24 90.15 7.48 98.63 5.72 107.12 C-3.85 107.12 -13.42 107.12 -23.28 107.12 C-24.34 103.96 -24.26 103 -23.61 99.86 C-23.44 98.99 -23.27 98.12 -23.09 97.22 C-22.89 96.27 -22.69 95.32 -22.49 94.34 C-22.28 93.34 -22.08 92.33 -21.87 91.3 C-21.2 87.98 -20.51 84.65 -19.82 81.33 C-19.35 79.03 -18.88 76.73 -18.41 74.42 C-17.43 69.6 -16.44 64.77 -15.44 59.94 C-14.16 53.74 -12.9 47.54 -11.63 41.34 C-10.66 36.58 -9.69 31.83 -8.71 27.07 C-8.24 24.79 -7.78 22.5 -7.31 20.21 C-6.66 17.02 -6 13.83 -5.34 10.64 C-5.15 9.69 -4.95 8.73 -4.75 7.75 C-4.57 6.88 -4.39 6.02 -4.21 5.13 C-4.05 4.38 -3.9 3.62 -3.74 2.84 C-3.05 0.23 -2.76 0.15 0 0 Z " fill="#000000" transform="translate(194.28419494628906,20.879745483398438)"/>
<path d="M0 0 C9.57 0 19.14 0 29 0 C30.8 7.19 32.55 14.29 33.99 21.54 C34.17 22.42 34.34 23.29 34.53 24.19 C35.1 27.02 35.66 29.85 36.23 32.68 C36.63 34.67 37.03 36.66 37.43 38.65 C38.26 42.79 39.09 46.94 39.92 51.08 C40.98 56.39 42.05 61.7 43.11 67.01 C43.94 71.1 44.76 75.2 45.58 79.3 C45.97 81.25 46.36 83.21 46.76 85.17 C47.31 87.9 47.85 90.63 48.4 93.36 C48.56 94.17 48.72 94.97 48.89 95.8 C49.65 99.67 50 103.02 50 107 C40.43 107 30.86 107 21 107 C16.53 86.39 12.27 65.74 8.14 45.06 C7.28 40.78 6.42 36.5 5.56 32.21 C4.88 28.88 4.22 25.54 3.55 22.2 C3.23 20.62 2.91 19.04 2.59 17.46 C2.15 15.27 1.72 13.08 1.28 10.89 C1.03 9.66 0.78 8.42 0.53 7.14 C0 4 0 4 0 0 Z " fill="#000000" transform="translate(254,21)"/>
<path d="M0 0 C9.24 0 18.48 0 28 0 C28 35.31 28 70.62 28 107 C18.76 107 9.52 107 0 107 C0 71.69 0 36.38 0 0 Z " fill="#000000" transform="translate(329,21)"/>
<path d="M0 0 C0 35.31 0 70.62 0 107 C-11 107 -11 107 -14.56 103.62 C-15.1 102.88 -15.63 102.14 -16.18 101.37 C-18.23 98.7 -20.55 96.86 -23.13 94.71 C-28.49 89.38 -29.33 84.72 -29.44 77.38 C-29.43 75.9 -29.42 74.42 -29.4 72.95 C-29.41 71.4 -29.42 69.86 -29.44 68.31 C-29.47 65.08 -29.45 61.85 -29.41 58.63 C-29.37 54.52 -29.42 50.42 -29.5 46.32 C-29.56 43.13 -29.55 39.94 -29.53 36.75 C-29.52 35.24 -29.54 33.73 -29.57 32.22 C-29.74 23.36 -28.5 17.34 -22.22 10.78 C-20.67 9.26 -19.1 7.79 -17.47 6.37 C-15.76 4.86 -15.76 4.86 -13.8 2.14 C-11 0 -11 0 0 0 Z " fill="#000000" transform="translate(517,21)"/>
<path d="M0 0 C33.33 0 66.66 0 101 0 C101 7.92 101 15.84 101 24 C67.67 24 34.34 24 0 24 C0 16.08 0 8.16 0 0 Z " fill="#000000" transform="translate(521,104)"/>
<path d="M0 0 C33 0 66 0 100 0 C100 7.92 100 15.84 100 24 C67 24 34 24 0 24 C0 16.08 0 8.16 0 0 Z " fill="#000000" transform="translate(362,104)"/>
<path d="M0 0 C33 0 66 0 100 0 C100 7.92 100 15.84 100 24 C67 24 34 24 0 24 C0 16.08 0 8.16 0 0 Z " fill="#000000" transform="translate(362,21)"/>
<path d="M0 0 C0.92 0 1.84 0.01 2.79 0.01 C4.24 0.01 4.24 0.01 5.72 0.01 C8.93 0.01 12.14 0.02 15.35 0.03 C17.56 0.03 19.78 0.03 22 0.03 C27.85 0.03 33.7 0.04 39.55 0.06 C45.52 0.07 51.48 0.07 57.45 0.08 C69.16 0.09 80.88 0.1 92.59 0.12 C92.59 8.04 92.59 15.96 92.59 24.12 C59.59 24.12 26.59 24.12 -7.41 24.12 C-7.41 0.01 -7.41 0.01 0 0 Z " fill="#000000" transform="translate(528.4070892333984,20.875579833984375)"/>
<path d="M0 0 C30.69 0 61.38 0 93 0 C93 7.92 93 15.84 93 24 C62.31 24 31.62 24 0 24 C0 16.08 0 8.16 0 0 Z " fill="#000000" transform="translate(362,63)"/>
<path d="M0 0 C3.57 0.01 7.15 0.01 10.72 0.02 C17.66 0.03 24.6 0.05 31.54 0.07 C31.54 7.99 31.54 15.91 31.54 24.07 C22.75 24.39 13.97 24.64 5.17 24.79 C1.09 24.87 -2.99 24.97 -7.07 25.12 C-35.68 26.22 -35.68 26.22 -42.21 21.06 C-45.41 17.75 -47.41 14.17 -49.46 10.07 C-50.67 8.44 -51.92 6.83 -53.21 5.26 C-55.46 2.07 -55.46 2.07 -55.46 1.07 C-36.97 0.12 -18.51 -0.06 0 0 Z " fill="#000000" transform="translate(71.45745849609375,103.93133544921875)"/>
</svg>
