<?xml version="1.0" encoding="utf-8"?>
<!-- Generator: $$$/GeneralStr/196=Adobe Illustrator 27.6.0, SVG Export Plug-In . SVG Version: 6.00 Build 0)  -->
<svg version="1.1" id="Layer_1" xmlns="http://www.w3.org/2000/svg" xmlns:xlink="http://www.w3.org/1999/xlink" x="0px" y="0px"
     viewBox="0 0 135.595 33.857" style="enable-background:new 0 0 135.595 33.857;" xml:space="preserve">
<style type="text/css">
	.st0{fill:#434244;}
</style>
    <g>
	<g>
		<g>
			<g>
				<path class="st0" d="M31.153,16.777"/>
			</g>
		</g>
        <g>
			<g>
				<g>
					<circle class="st0" cx="40.419" cy="12.319" r="4.495"/>
				</g>
			</g>
            <g>
				<g>
					<circle class="st0" cx="13.588" cy="12.319" r="4.495"/>
				</g>
			</g>
            <g>
				<g>
					<path class="st0" d="M54.12,0.461C54.145,0.215,53.954,0,53.707,0L40.579,0c0,0.001,0,0.003,0,0.004
						C40.471,0.002,40.362,0,40.252,0c-3.311,0-6.262,1.168-9.023,3.57c-2.239,1.948-3.991,4.403-5.537,6.568
						c-0.478,0.67-0.93,1.303-1.373,1.888l0.024,0.018c-0.02,0.028-0.04,0.056-0.06,0.084c-2.821,3.997-5.738,8.131-10.719,8.131
						c-4.378,0-7.94-3.562-7.94-7.94s3.562-7.94,7.94-7.94c2.545,0,4.93,1.22,6.425,3.274l0.115,0.143
						c0.653,1.015,1.977,1.314,2.994,0.662c1.017-0.652,1.328-2.019,0.675-3.033c-0.018-0.028-0.037-0.056-0.056-0.083l0.003,0.003
						C21.419,1.998,17.622,0,13.565,0c-0.007,0-0.015,0-0.022,0c0,0,0,0,0,0L0.416,0C0.169,0-0.023,0.214,0.002,0.459
						c0.217,2.135,1.927,3.827,4.07,4.017c-1.765,2.132-2.827,4.866-2.827,7.844c0,6.793,5.526,12.319,12.319,12.319
						c3.279,0,6.185-1.146,8.884-3.505c2.192-1.915,3.903-4.341,5.413-6.48c0.512-0.726,0.996-1.412,1.472-2.041l-0.018-0.014
						c2.896-4.056,5.903-8.22,10.937-8.22c4.366,0,7.921,3.543,7.94,7.904c0.019,4.199-3.294,7.73-7.487,7.964
						c-2.212,0.124-4.335-0.66-5.926-2.175l-0.05-0.048c-0.874-0.832-2.264-0.769-3.06,0.138l-4.7,5.408l-0.045-0.047l-0.004,0.003
						c-0.852-0.779-2.172-0.764-3.003,0.056c-0.82,0.81-0.863,2.108-0.127,2.972l-0.014,0.013l2.821,3.035
						c0.169,0.174,0.45,0.167,0.61-0.015l6.23-7.132l0.311,0.206c1.981,1.288,4.097,1.977,6.504,1.977
						c6.793,0,12.319-5.526,12.319-12.319c0-2.97-1.056-5.698-2.813-7.828C52.035,4.437,53.893,2.691,54.12,0.461z"/>
				</g>
			</g>
            <g>
				<g>
					<path class="st0" d="M72.113,15.635c0-1.512-0.194-2.583-0.583-3.213c-0.389-0.63-1.055-0.945-2-0.945
						c-0.294,0-0.599,0.016-0.914,0.047c-0.104,0.01-0.207,0.021-0.309,0.033c-0.345,0.039-0.604,0.33-0.604,0.677v11.509
						c0,0.376-0.305,0.681-0.681,0.681h-3.333c-0.376,0-0.681-0.305-0.681-0.681l0-14.792c0-0.316,0.217-0.589,0.524-0.662
						c0.269-0.065,0.561-0.131,0.878-0.199c0.536-0.115,1.103-0.221,1.701-0.315c0.599-0.095,1.213-0.168,1.843-0.221
						c0.63-0.052,1.249-0.079,1.859-0.079c1.197,0,2.168,0.153,2.914,0.457c0.571,0.233,1.065,0.5,1.482,0.801
						c0.219,0.158,0.511,0.174,0.74,0.031c0.579-0.363,1.224-0.656,1.936-0.879c0.871-0.273,1.674-0.41,2.41-0.41
						c1.323,0,2.41,0.184,3.261,0.551c0.851,0.368,1.528,0.888,2.032,1.56c0.504,0.672,0.851,1.47,1.04,2.394
						c0.189,0.924,0.284,1.953,0.284,3.087v8.675c0,0.376-0.305,0.681-0.681,0.681l-3.333,0c-0.376,0-0.681-0.305-0.681-0.681
						v-8.109c0-1.512-0.194-2.583-0.583-3.213c-0.389-0.63-1.055-0.945-2-0.945c-0.252,0-0.604,0.063-1.055,0.189
						c-0.215,0.06-0.412,0.127-0.592,0.202c-0.302,0.125-0.467,0.45-0.396,0.769c0.074,0.332,0.125,0.675,0.153,1.03
						c0.042,0.536,0.063,1.108,0.063,1.717l0,8.361c0,0.376-0.305,0.681-0.681,0.681l-3.333,0c-0.376,0-0.681-0.305-0.681-0.681
						L72.113,15.635z"/>
				</g>
                <g>
					<path class="st0" d="M103.565,16.107c0,1.302-0.189,2.494-0.567,3.575c-0.378,1.082-0.924,2.006-1.638,2.772
						c-0.714,0.767-1.57,1.36-2.567,1.78c-0.998,0.42-2.116,0.63-3.355,0.63c-1.218,0-2.326-0.21-3.323-0.63
						c-0.998-0.42-1.854-1.013-2.567-1.78c-0.714-0.767-1.271-1.69-1.67-2.772c-0.399-1.081-0.599-2.273-0.599-3.575
						c0-1.302,0.205-2.489,0.614-3.56c0.41-1.071,0.977-1.985,1.701-2.74c0.725-0.756,1.585-1.344,2.583-1.764
						c0.997-0.42,2.084-0.63,3.26-0.63c1.197,0,2.294,0.21,3.292,0.63c0.997,0.42,1.853,1.008,2.567,1.764
						c0.714,0.756,1.27,1.669,1.67,2.74C103.365,13.619,103.565,14.805,103.565,16.107z M98.777,16.107
						c0-1.449-0.289-2.588-0.866-3.418c-0.578-0.83-1.402-1.244-2.473-1.244c-1.071,0-1.901,0.415-2.489,1.244
						c-0.588,0.83-0.882,1.969-0.882,3.418c0,1.449,0.294,2.599,0.882,3.449c0.588,0.85,1.418,1.276,2.489,1.276
						c1.071,0,1.895-0.425,2.473-1.276C98.488,18.706,98.777,17.557,98.777,16.107z"/>
				</g>
                <g>
					<path class="st0" d="M104.985,23.743l0-22.429c0-0.334,0.242-0.619,0.572-0.672l3.333-0.537
						c0.414-0.067,0.789,0.253,0.789,0.672v6.255c0,0.435,0.4,0.757,0.825,0.664c0.122-0.027,0.251-0.053,0.387-0.079
						c0.493-0.095,0.971-0.142,1.433-0.142c1.344,0,2.462,0.184,3.355,0.551c0.892,0.368,1.607,0.888,2.142,1.56
						c0.536,0.672,0.914,1.47,1.134,2.394c0.221,0.924,0.331,1.953,0.331,3.087v8.675c0,0.376-0.305,0.681-0.681,0.681l-3.333,0
						c-0.376,0-0.681-0.305-0.681-0.681v-8.109c0-1.512-0.194-2.583-0.583-3.213c-0.389-0.63-1.108-0.945-2.158-0.945
						c-0.42,0-0.814,0.037-1.181,0.11c-0.165,0.033-0.322,0.067-0.472,0.102c-0.307,0.072-0.52,0.347-0.52,0.662v11.392
						c0,0.376-0.305,0.681-0.681,0.681h-3.333C105.29,24.424,104.985,24.119,104.985,23.743z"/>
				</g>
                <g>
					<path class="st0" d="M135.212,23.335c0,0.311-0.208,0.584-0.51,0.66c-0.712,0.18-1.571,0.349-2.577,0.508
						c-1.26,0.199-2.583,0.299-3.969,0.299c-1.407,0-2.578-0.189-3.512-0.567c-0.935-0.378-1.675-0.908-2.221-1.591
						c-0.546-0.682-0.935-1.496-1.166-2.442c-0.231-0.945-0.346-1.985-0.346-3.119l0-8.55c0-0.376,0.305-0.681,0.681-0.681l3.333,0
						c0.376,0,0.681,0.305,0.681,0.681v7.983c0,1.512,0.199,2.604,0.599,3.276c0.399,0.672,1.144,1.008,2.237,1.008
						c0.336,0,0.693-0.016,1.071-0.047c0.139-0.012,0.271-0.024,0.398-0.037c0.347-0.035,0.61-0.328,0.61-0.677V8.534
						c0-0.376,0.305-0.681,0.681-0.681l3.333,0c0.376,0,0.681,0.305,0.681,0.681V23.335z"/>
				</g>
			</g>
		</g>
        <g>
			<path class="st0" d="M25.346,31.734"/>
		</g>
        <g>
			<path class="st0" d="M34.343,21.418"/>
		</g>
	</g>
</g>
    <g>
	<path class="st0" d="M67.372,29.602h0.047v4.221h-1.001v-2.076l-1.093,1.133l-1.092-1.133v2.076h-1.001v-4.221h0.046l2.047,1.967
		L67.372,29.602z"/>
        <path class="st0" d="M71.075,33.823h-2.737v-4.094h2.737v0.932h-1.736v0.644h1.46v0.909h-1.46v0.678h1.736V33.823z"/>
        <path class="st0" d="M75.934,29.602h0.047v4.221H74.98v-2.076l-1.093,1.133l-1.092-1.133v2.076h-1.001v-4.221h0.046l2.047,1.967
		L75.934,29.602z"/>
        <path class="st0" d="M80.362,32.65c0,0.184-0.032,0.348-0.096,0.492c-0.062,0.144-0.152,0.266-0.267,0.368
		c-0.115,0.102-0.25,0.179-0.405,0.233s-0.325,0.081-0.51,0.081H76.9v-4.094h1.961c0.18,0,0.347,0.023,0.5,0.069
		s0.285,0.114,0.396,0.204c0.111,0.09,0.199,0.203,0.262,0.339c0.063,0.136,0.095,0.294,0.095,0.474
		c0,0.172-0.032,0.327-0.098,0.463c-0.064,0.136-0.155,0.256-0.27,0.359c0.195,0.096,0.347,0.228,0.454,0.397
		C80.308,32.203,80.362,32.408,80.362,32.65z M78.78,31.327c0.104,0,0.189-0.031,0.256-0.092c0.067-0.062,0.101-0.144,0.101-0.248
		s-0.033-0.186-0.101-0.247c-0.066-0.061-0.152-0.092-0.256-0.092h-0.879v0.678H78.78z M78.976,32.903
		c0.11,0,0.201-0.032,0.27-0.095c0.069-0.063,0.104-0.15,0.104-0.262s-0.034-0.199-0.104-0.262c-0.068-0.063-0.159-0.095-0.27-0.095
		h-1.075v0.713H78.976z"/>
        <path class="st0" d="M83.788,33.823h-2.737v-4.094h2.737v0.932h-1.736v0.644h1.46v0.909h-1.46v0.678h1.736V33.823z"/>
        <path class="st0" d="M88.049,33.823h-1.127l-0.816-1.38h-0.598v1.38h-1.001v-4.094h2.007c0.199,0,0.386,0.03,0.561,0.089
		s0.325,0.146,0.451,0.259c0.127,0.113,0.227,0.251,0.299,0.414c0.073,0.163,0.109,0.346,0.109,0.549
		c0,0.311-0.073,0.579-0.221,0.805c-0.148,0.226-0.349,0.391-0.602,0.495L88.049,33.823z M86.439,31.557
		c0.139,0,0.253-0.041,0.346-0.124c0.092-0.083,0.138-0.192,0.138-0.331s-0.046-0.248-0.138-0.331
		c-0.093-0.083-0.207-0.124-0.346-0.124h-0.931v0.908H86.439z"/>
        <path class="st0" d="M94.225,31.776c0,0.295-0.056,0.569-0.167,0.822s-0.264,0.473-0.457,0.661s-0.42,0.334-0.679,0.44
		s-0.537,0.158-0.836,0.158s-0.578-0.053-0.837-0.158s-0.485-0.252-0.679-0.44s-0.346-0.408-0.457-0.661s-0.167-0.527-0.167-0.822
		c0-0.295,0.056-0.569,0.167-0.822s0.264-0.474,0.457-0.661c0.193-0.188,0.42-0.334,0.679-0.44s0.538-0.158,0.837-0.158
		s0.577,0.053,0.836,0.158s0.485,0.252,0.679,0.44c0.193,0.188,0.346,0.408,0.457,0.661S94.225,31.48,94.225,31.776z M93.19,31.776
		c0-0.165-0.027-0.318-0.083-0.46c-0.056-0.142-0.133-0.264-0.23-0.365s-0.215-0.181-0.351-0.239s-0.282-0.086-0.439-0.086
		s-0.304,0.028-0.44,0.086c-0.136,0.058-0.253,0.137-0.351,0.239s-0.175,0.223-0.229,0.365c-0.056,0.142-0.084,0.295-0.084,0.46
		c0,0.168,0.028,0.323,0.084,0.463c0.055,0.14,0.133,0.261,0.232,0.362s0.218,0.181,0.354,0.238c0.136,0.058,0.283,0.086,0.44,0.086
		s0.303-0.029,0.437-0.086c0.134-0.057,0.25-0.137,0.348-0.238s0.175-0.223,0.23-0.362C93.162,32.098,93.19,31.944,93.19,31.776z"/>
        <path class="st0" d="M97.709,30.66h-1.736v0.748h1.46v0.932h-1.46v1.483h-1.001v-4.094h2.737V30.66z"/>
        <path class="st0" d="M103.948,29.602h0.047v4.221h-1.001v-2.076l-1.093,1.133l-1.092-1.133v2.076h-1.001v-4.221h0.046l2.047,1.967
		L103.948,29.602z"/>
        <path class="st0" d="M109.019,31.776c0,0.295-0.056,0.569-0.167,0.822s-0.264,0.473-0.457,0.661s-0.42,0.334-0.679,0.44
		s-0.537,0.158-0.836,0.158s-0.578-0.053-0.837-0.158s-0.485-0.252-0.679-0.44s-0.346-0.408-0.457-0.661s-0.167-0.527-0.167-0.822
		c0-0.295,0.056-0.569,0.167-0.822s0.264-0.474,0.457-0.661c0.193-0.188,0.42-0.334,0.679-0.44s0.538-0.158,0.837-0.158
		s0.577,0.053,0.836,0.158s0.485,0.252,0.679,0.44c0.193,0.188,0.346,0.408,0.457,0.661S109.019,31.48,109.019,31.776z
		 M107.984,31.776c0-0.165-0.027-0.318-0.083-0.46c-0.056-0.142-0.133-0.264-0.23-0.365s-0.215-0.181-0.351-0.239
		s-0.282-0.086-0.439-0.086s-0.304,0.028-0.44,0.086c-0.136,0.058-0.253,0.137-0.351,0.239s-0.175,0.223-0.229,0.365
		c-0.056,0.142-0.084,0.295-0.084,0.46c0,0.168,0.028,0.323,0.084,0.463c0.055,0.14,0.133,0.261,0.232,0.362
		s0.218,0.181,0.354,0.238c0.136,0.058,0.283,0.086,0.44,0.086s0.303-0.029,0.437-0.086c0.134-0.057,0.25-0.137,0.348-0.238
		s0.175-0.223,0.23-0.362C107.956,32.098,107.984,31.944,107.984,31.776z"/>
        <path class="st0" d="M112.388,33.823h-2.622v-4.094h1.001v3.163h1.621V33.823z"/>
        <path class="st0" d="M118.241,32.983c-0.218,0.276-0.483,0.491-0.796,0.644s-0.66,0.23-1.044,0.23
		c-0.295,0-0.571-0.053-0.828-0.158s-0.48-0.252-0.673-0.44c-0.191-0.188-0.342-0.408-0.451-0.661s-0.164-0.527-0.164-0.822
		c0-0.295,0.055-0.569,0.164-0.822s0.26-0.474,0.451-0.661c0.192-0.188,0.416-0.334,0.673-0.44s0.533-0.158,0.828-0.158
		c0.345,0,0.647,0.062,0.906,0.187s0.497,0.308,0.716,0.549l-0.771,0.569c-0.111-0.115-0.235-0.206-0.371-0.273
		c-0.137-0.067-0.296-0.101-0.48-0.101c-0.157,0-0.301,0.028-0.431,0.086c-0.131,0.058-0.245,0.137-0.343,0.239
		s-0.173,0.223-0.227,0.365c-0.054,0.142-0.081,0.295-0.081,0.46c0,0.168,0.027,0.323,0.081,0.463
		c0.054,0.14,0.129,0.261,0.227,0.362s0.212,0.181,0.343,0.238c0.13,0.058,0.273,0.086,0.431,0.086c0.165,0,0.318-0.025,0.46-0.075
		s0.269-0.121,0.38-0.213V32.27h-0.908V31.43h1.908V32.983z"/>
        <path class="st0" d="M122.589,33.823h-1.127l-0.816-1.38h-0.598v1.38h-1.001v-4.094h2.007c0.199,0,0.386,0.03,0.561,0.089
		s0.325,0.146,0.451,0.259c0.127,0.113,0.227,0.251,0.299,0.414c0.073,0.163,0.109,0.346,0.109,0.549
		c0,0.311-0.073,0.579-0.221,0.805c-0.148,0.226-0.349,0.391-0.602,0.495L122.589,33.823z M120.979,31.557
		c0.139,0,0.253-0.041,0.346-0.124c0.092-0.083,0.138-0.192,0.138-0.331s-0.046-0.248-0.138-0.331
		c-0.093-0.083-0.207-0.124-0.346-0.124h-0.931v0.908H120.979z"/>
        <path class="st0" d="M127.327,31.776c0,0.295-0.056,0.569-0.167,0.822s-0.264,0.473-0.457,0.661s-0.42,0.334-0.679,0.44
		s-0.537,0.158-0.836,0.158s-0.578-0.053-0.837-0.158s-0.485-0.252-0.679-0.44s-0.346-0.408-0.457-0.661s-0.167-0.527-0.167-0.822
		c0-0.295,0.056-0.569,0.167-0.822s0.264-0.474,0.457-0.661c0.193-0.188,0.42-0.334,0.679-0.44s0.538-0.158,0.837-0.158
		s0.577,0.053,0.836,0.158s0.485,0.252,0.679,0.44c0.193,0.188,0.346,0.408,0.457,0.661S127.327,31.48,127.327,31.776z
		 M126.292,31.776c0-0.165-0.027-0.318-0.083-0.46c-0.056-0.142-0.133-0.264-0.23-0.365s-0.215-0.181-0.351-0.239
		s-0.282-0.086-0.439-0.086s-0.304,0.028-0.44,0.086c-0.136,0.058-0.253,0.137-0.351,0.239s-0.175,0.223-0.229,0.365
		c-0.056,0.142-0.084,0.295-0.084,0.46c0,0.168,0.028,0.323,0.084,0.463c0.055,0.14,0.133,0.261,0.232,0.362
		s0.218,0.181,0.354,0.238c0.136,0.058,0.283,0.086,0.44,0.086s0.303-0.029,0.437-0.086c0.134-0.057,0.25-0.137,0.348-0.238
		s0.175-0.223,0.23-0.362C126.265,32.098,126.292,31.944,126.292,31.776z"/>
        <path class="st0" d="M131.306,32.19c0,0.245-0.04,0.469-0.121,0.672c-0.08,0.204-0.192,0.379-0.336,0.526s-0.316,0.263-0.518,0.345
		c-0.201,0.083-0.425,0.124-0.67,0.124s-0.469-0.042-0.67-0.124c-0.201-0.082-0.374-0.197-0.518-0.345s-0.256-0.323-0.336-0.526
		c-0.081-0.203-0.121-0.427-0.121-0.672v-2.461h1.001v2.542c0,0.2,0.058,0.359,0.172,0.478c0.115,0.119,0.272,0.178,0.472,0.178
		s0.356-0.06,0.472-0.178s0.173-0.278,0.173-0.478v-2.542h1V32.19z"/>
        <path class="st0" d="M135.595,31.12c0,0.215-0.037,0.409-0.112,0.584c-0.074,0.174-0.179,0.324-0.312,0.448
		c-0.135,0.125-0.293,0.221-0.475,0.291c-0.183,0.069-0.381,0.104-0.596,0.104h-0.931v1.276h-1.001v-4.094h1.932
		c0.215,0,0.413,0.033,0.596,0.098c0.182,0.065,0.34,0.158,0.475,0.279c0.134,0.121,0.238,0.267,0.312,0.44
		C135.558,30.718,135.595,30.91,135.595,31.12z M134.56,31.155c0-0.153-0.05-0.274-0.149-0.362c-0.1-0.088-0.226-0.132-0.379-0.132
		h-0.862v0.989h0.862c0.153,0,0.279-0.044,0.379-0.132S134.56,31.308,134.56,31.155z"/>
</g>
</svg>
